<mxfile host="65bd71144e">
    <diagram id="ZKecFsqG4HtvaXJ8pb31" name="Page-1">
        <mxGraphModel dx="543" dy="357" grid="1" gridSize="10" guides="1" tooltips="1" connect="1" arrows="1" fold="1" page="1" pageScale="1" pageWidth="827" pageHeight="1169" math="0" shadow="0">
            <root>
                <mxCell id="0"/>
                <mxCell id="1" parent="0"/>
                <mxCell id="2" value="Central server" style="rounded=0;whiteSpace=wrap;html=1;" vertex="1" parent="1">
                    <mxGeometry x="320" y="70" width="120" height="40" as="geometry"/>
                </mxCell>
                <mxCell id="3" value="User 1" style="ellipse;whiteSpace=wrap;html=1;" vertex="1" parent="1">
                    <mxGeometry x="140" y="240" width="40" height="40" as="geometry"/>
                </mxCell>
                <mxCell id="4" value="" style="edgeStyle=none;orthogonalLoop=1;jettySize=auto;html=1;rounded=0;endArrow=open;startSize=14;endSize=14;sourcePerimeterSpacing=8;targetPerimeterSpacing=8;curved=1;" edge="1" parent="1" source="3" target="2">
                    <mxGeometry width="140" relative="1" as="geometry">
                        <mxPoint x="330" y="200" as="sourcePoint"/>
                        <mxPoint x="470" y="200" as="targetPoint"/>
                        <Array as="points"/>
                    </mxGeometry>
                </mxCell>
                <mxCell id="7" value="Send transaction" style="edgeLabel;html=1;align=center;verticalAlign=middle;resizable=0;points=[];fontSize=7;" vertex="1" connectable="0" parent="4">
                    <mxGeometry x="-0.1462" y="3" relative="1" as="geometry">
                        <mxPoint as="offset"/>
                    </mxGeometry>
                </mxCell>
                <mxCell id="6" value="&lt;p style=&quot;line-height: 75%;&quot;&gt;&lt;font style=&quot;font-size: 7px;&quot;&gt;User sends a transaction to the central server, then the server accepts that transaction and other recent transactions in a &quot;block&quot;, but doesnt do any processing, it keeps that transaction in a buffer until someone else verifies that block/transaction, when that person verifies the block successfully it recieves some amount of xite&lt;/font&gt;&lt;/p&gt;" style="text;strokeColor=none;fillColor=none;html=1;align=center;verticalAlign=middle;whiteSpace=wrap;rounded=0;" vertex="1" parent="1">
                    <mxGeometry x="110" y="80" width="150" height="80" as="geometry"/>
                </mxCell>
                <mxCell id="8" value="Buffer blockchain for that transaction" style="rounded=0;whiteSpace=wrap;html=1;fontSize=7;" vertex="1" parent="1">
                    <mxGeometry x="270" y="140" width="80" height="30" as="geometry"/>
                </mxCell>
                <mxCell id="9" value="User 2" style="ellipse;whiteSpace=wrap;html=1;" vertex="1" parent="1">
                    <mxGeometry x="450" y="250" width="40" height="40" as="geometry"/>
                </mxCell>
                <mxCell id="10" value="" style="edgeStyle=none;orthogonalLoop=1;jettySize=auto;html=1;rounded=0;fontSize=7;endArrow=open;startSize=14;endSize=14;sourcePerimeterSpacing=8;targetPerimeterSpacing=8;curved=1;entryX=1;entryY=0.5;entryDx=0;entryDy=0;" edge="1" parent="1" source="9" target="8">
                    <mxGeometry width="140" relative="1" as="geometry">
                        <mxPoint x="300" y="190" as="sourcePoint"/>
                        <mxPoint x="440" y="190" as="targetPoint"/>
                        <Array as="points"/>
                    </mxGeometry>
                </mxCell>
                <mxCell id="13" value="&lt;span style=&quot;background-color: rgb(251, 251, 251);&quot;&gt;Verify 5-10 recent transactions (single block)&lt;/span&gt;" style="edgeLabel;html=1;align=center;verticalAlign=middle;resizable=0;points=[];fontSize=7;" vertex="1" connectable="0" parent="10">
                    <mxGeometry x="-0.2234" y="-1" relative="1" as="geometry">
                        <mxPoint x="-12" y="-13" as="offset"/>
                    </mxGeometry>
                </mxCell>
                <mxCell id="11" value="" style="edgeStyle=none;orthogonalLoop=1;jettySize=auto;html=1;rounded=0;fontSize=7;endArrow=open;startSize=14;endSize=14;sourcePerimeterSpacing=8;targetPerimeterSpacing=8;curved=1;entryX=0.5;entryY=1;entryDx=0;entryDy=0;exitX=1;exitY=0.5;exitDx=0;exitDy=0;" edge="1" parent="1" source="8" target="2">
                    <mxGeometry width="140" relative="1" as="geometry">
                        <mxPoint x="340" y="180" as="sourcePoint"/>
                        <mxPoint x="430" y="130" as="targetPoint"/>
                        <Array as="points"/>
                    </mxGeometry>
                </mxCell>
            </root>
        </mxGraphModel>
    </diagram>
</mxfile>